<svg width="16" height="16" viewBox="0 0 16 16" fill="none" xmlns="http://www.w3.org/2000/svg">
<path d="M14.6602 2.66683C14.6602 1.9335 14.0668 1.3335 13.3335 1.3335H2.66683C1.9335 1.3335 1.3335 1.9335 1.3335 2.66683V10.6668C1.3335 11.4002 1.9335 12.0002 2.66683 12.0002H12.0002L14.6668 14.6668L14.6602 2.66683ZM11.3335 9.3335H4.66683C4.30016 9.3335 4.00016 9.0335 4.00016 8.66683C4.00016 8.30016 4.30016 8.00016 4.66683 8.00016H11.3335C11.7002 8.00016 12.0002 8.30016 12.0002 8.66683C12.0002 9.0335 11.7002 9.3335 11.3335 9.3335ZM11.3335 7.3335H4.66683C4.30016 7.3335 4.00016 7.0335 4.00016 6.66683C4.00016 6.30016 4.30016 6.00016 4.66683 6.00016H11.3335C11.7002 6.00016 12.0002 6.30016 12.0002 6.66683C12.0002 7.0335 11.7002 7.3335 11.3335 7.3335ZM11.3335 5.3335H4.66683C4.30016 5.3335 4.00016 5.0335 4.00016 4.66683C4.00016 4.30016 4.30016 4.00016 4.66683 4.00016H11.3335C11.7002 4.00016 12.0002 4.30016 12.0002 4.66683C12.0002 5.0335 11.7002 5.3335 11.3335 5.3335Z" fill="#595959"/>
</svg>
