<svg width="14" height="14" viewBox="0 0 14 14" fill="none" xmlns="http://www.w3.org/2000/svg">
<path d="M11.363 7.20409C10.4472 4.82409 7.18634 4.69575 7.97384 1.23659C8.03217 0.979919 7.75801 0.781586 7.53634 0.915752C5.41884 2.16409 3.89634 4.66659 5.17384 7.94492C5.27884 8.21325 4.96384 8.46409 4.73634 8.28909C3.68051 7.48992 3.56967 6.34075 3.66301 5.51825C3.69801 5.21492 3.30134 5.06909 3.13217 5.31992C2.73551 5.92659 2.33301 6.90659 2.33301 8.38242C2.55467 11.6491 5.31384 12.6524 6.30551 12.7808C7.72301 12.9616 9.25717 12.6991 10.3597 11.6899C11.573 10.5641 12.0163 8.76742 11.363 7.20409ZM5.94967 10.1383C6.78967 9.93409 7.22134 9.32742 7.33801 8.79075C7.53051 7.95659 6.77801 7.13992 7.28551 5.82159C7.47801 6.91242 9.19301 7.59492 9.19301 8.78492C9.23967 10.2608 7.64134 11.5266 5.94967 10.1383Z" fill="#FAFAFA"/>
</svg>
