<svg width="12" height="12" viewBox="0 0 12 12" fill="none" xmlns="http://www.w3.org/2000/svg">
<path d="M11.2501 5.1375C11.2501 4.60125 10.8206 4.1625 10.2956 4.1625H7.284L7.73741 1.93463L7.75172 1.77863C7.75172 1.57875 7.67059 1.3935 7.54172 1.26187L7.03582 0.75L3.89536 3.96263C3.71877 4.13813 3.61377 4.38188 3.61377 4.65V9.525C3.61377 10.0613 4.04332 10.5 4.56832 10.5H8.86377C9.25991 10.5 9.59877 10.2563 9.74195 9.90525L11.1833 6.46837C11.2263 6.35625 11.2501 6.23925 11.2501 6.1125V5.1375Z" fill="#15AF4A"/>
<path d="M2.65909 10.4999H0.75V4.6499H2.65909V10.4999Z" fill="#15AF4A"/>
</svg>
