<svg width="16" height="16" viewBox="0 0 16 16" fill="none" xmlns="http://www.w3.org/2000/svg">
<path fill-rule="evenodd" clip-rule="evenodd" d="M4.19997 6.93335C3.6133 6.93335 3.1333 7.41335 3.1333 8.00002C3.1333 8.58668 3.6133 9.06668 4.19997 9.06668C4.78663 9.06668 5.26663 8.58668 5.26663 8.00002C5.26663 7.41335 4.78663 6.93335 4.19997 6.93335ZM11.8 6.93335C11.2133 6.93335 10.7333 7.41335 10.7333 8.00002C10.7333 8.58668 11.2133 9.06668 11.8 9.06668C12.3866 9.06668 12.8666 8.58668 12.8666 8.00002C12.8666 7.41335 12.3866 6.93335 11.8 6.93335ZM7.99997 6.93335C7.4133 6.93335 6.9333 7.41335 6.9333 8.00002C6.9333 8.58668 7.4133 9.06668 7.99997 9.06668C8.58664 9.06668 9.06664 8.58668 9.06664 8.00002C9.06664 7.41335 8.58664 6.93335 7.99997 6.93335Z" fill="#BFBFBF"/>
</svg>
