<svg width="25" height="25" viewBox="0 0 25 25" fill="none" xmlns="http://www.w3.org/2000/svg">
<path d="M19.9895 11.5059C19.9895 12.1931 20.5517 12.7553 21.239 12.7553H23.7376C24.4249 12.7553 24.9871 12.1931 24.9871 11.5059C24.9871 10.8188 24.4249 10.2566 23.7376 10.2566H21.239C20.5517 10.2566 19.9895 10.8188 19.9895 11.5059Z" fill="#BFBFBF"/>
<path d="M18.228 17.5281C17.8157 18.0778 17.9282 18.84 18.4779 19.2396C19.1401 19.7269 19.8396 20.2516 20.5018 20.7515C21.0516 21.1638 21.8261 21.0514 22.2259 20.5016C22.2259 20.4891 22.2384 20.4891 22.2384 20.4765C22.6506 19.9269 22.5382 19.1523 21.9886 18.7524C21.3264 18.2527 20.6267 17.728 19.9771 17.2408C19.4273 16.8285 18.6528 16.9534 18.2405 17.5031C18.2405 17.5156 18.228 17.5281 18.228 17.5281Z" fill="#BFBFBF"/>
<path d="M22.251 2.52339C22.251 2.5109 22.2384 2.5109 22.2384 2.49839C21.8261 1.94869 21.0517 1.83625 20.5143 2.24854C19.8523 2.74827 19.1402 3.273 18.4904 3.77273C17.9407 4.18502 17.8408 4.95962 18.2531 5.49684C18.2531 5.50934 18.2655 5.50935 18.2655 5.52183C18.6778 6.07155 19.44 6.18399 19.9896 5.77171C20.6518 5.28446 21.3515 4.74723 22.0135 4.24749C22.5509 3.84769 22.6507 3.07311 22.251 2.52339Z" fill="#BFBFBF"/>
<path d="M7.49611 7.75807H2.49871C1.12442 7.75807 0 8.88248 0 10.2568V12.7555C0 14.1298 1.12442 15.2542 2.49871 15.2542H3.74806V19.0022C3.74806 19.6893 4.31026 20.2515 4.99742 20.2515C5.68456 20.2515 6.24677 19.6893 6.24677 19.0022V15.2542H7.49611L13.7429 19.0022V4.01001L7.49611 7.75807Z" fill="#BFBFBF"/>
<path d="M16.8662 11.5062C16.8662 9.84461 16.1416 8.34538 14.9922 7.32092V15.6791C16.1416 14.6671 16.8662 13.1679 16.8662 11.5062Z" fill="#BFBFBF"/>
</svg>
