<svg width="24" height="24" viewBox="0 0 24 24" fill="none" xmlns="http://www.w3.org/2000/svg">
<path d="M12 17.5556C12.3148 17.5556 12.5789 17.4489 12.7922 17.2356C13.0056 17.0222 13.1119 16.7585 13.1111 16.4444C13.1111 16.1296 13.0044 15.8656 12.7911 15.6522C12.5778 15.4389 12.3141 15.3326 12 15.3333C11.6852 15.3333 11.4211 15.44 11.2078 15.6533C10.9944 15.8667 10.8881 16.1304 10.8889 16.4444C10.8889 16.7593 10.9956 17.0233 11.2089 17.2367C11.4222 17.45 11.6859 17.5563 12 17.5556ZM10.8889 13.1111H13.1111V6.44444H10.8889V13.1111ZM7.83333 22L2 16.1667V7.83333L7.83333 2H16.1667L22 7.83333V16.1667L16.1667 22H7.83333Z" fill="#BFBFBF"/>
</svg>
