<svg width="16" height="16" viewBox="0 0 16 16" fill="none" xmlns="http://www.w3.org/2000/svg">
<g clip-path="url(#clip0_1185_7238)">
<path fill-rule="evenodd" clip-rule="evenodd" d="M8.50658 0.624877C8.23955 0.301116 7.74338 0.301652 7.47705 0.625989L6.01517 2.40627C5.87428 2.57785 5.65722 2.66803 5.43623 2.64681L3.14319 2.42662C2.72544 2.3865 2.37498 2.73773 2.41599 3.15539L2.64114 5.44794C2.66284 5.66889 2.57313 5.88615 2.40185 6.02741L0.624733 7.49313C0.300972 7.76016 0.301508 8.25633 0.625845 8.52266L2.40613 9.98453C2.57771 10.1254 2.66789 10.3425 2.64667 10.5635L2.42647 12.8565C2.38636 13.2743 2.73758 13.6247 3.15525 13.5837L5.4478 13.3586C5.66875 13.3369 5.886 13.4266 6.02726 13.5979L7.49298 15.375C7.76001 15.6987 8.25618 15.6982 8.52251 15.3739L9.98439 13.5936C10.1253 13.422 10.3423 13.3318 10.5633 13.353L12.8564 13.5732C13.2741 13.6133 13.6246 13.2621 13.5836 12.8445L13.3584 10.5519C13.3367 10.331 13.4264 10.1137 13.5977 9.97244L15.3748 8.50672C15.6986 8.23969 15.6981 7.74352 15.3737 7.47719L13.5934 6.01532C13.4219 5.87443 13.3317 5.65737 13.3529 5.43637L13.5731 3.14334C13.6132 2.72559 13.262 2.37512 12.8443 2.41614L10.5518 2.64129C10.3308 2.66299 10.1136 2.57327 9.9723 2.402L8.50658 0.624877ZM3.55535 8.00472C3.5527 5.55139 5.54165 3.55813 7.99499 3.55548C10.4483 3.55283 12.4416 5.54179 12.4442 7.99512C12.4469 10.4485 10.4579 12.4417 8.00459 12.4444C5.55126 12.447 3.558 10.4581 3.55535 8.00472ZM5.20013 8.31406L6.7974 9.90789C6.97092 10.081 7.25537 10.0807 7.42407 9.90721L10.7938 6.53024C10.9669 6.35672 10.9666 6.07672 10.7931 5.90357C10.6196 5.73042 10.3396 5.73073 10.1664 5.90425L7.11194 8.96533L5.82611 7.68671C5.65259 7.51357 5.37259 7.51387 5.19945 7.68739C5.0263 7.86091 5.0266 8.14091 5.20013 8.31406Z" fill="#2081E2"/>
</g>
<defs>
<clipPath id="clip0_1185_7238">
<rect width="16" height="16" fill="white"/>
</clipPath>
</defs>
</svg>
