<svg width="12" height="12" viewBox="0 0 12 12" fill="none" xmlns="http://www.w3.org/2000/svg">
<path d="M10.995 2C10.995 1.45 10.55 1 10 1H2C1.45 1 1 1.45 1 2V8C1 8.55 1.45 9 2 9H9L11 11L10.995 2ZM8.5 7H3.5C3.225 7 3 6.775 3 6.5C3 6.225 3.225 6 3.5 6H8.5C8.775 6 9 6.225 9 6.5C9 6.775 8.775 7 8.5 7ZM8.5 5.5H3.5C3.225 5.5 3 5.275 3 5C3 4.725 3.225 4.5 3.5 4.5H8.5C8.775 4.5 9 4.725 9 5C9 5.275 8.775 5.5 8.5 5.5ZM8.5 4H3.5C3.225 4 3 3.775 3 3.5C3 3.225 3.225 3 3.5 3H8.5C8.775 3 9 3.225 9 3.5C9 3.775 8.775 4 8.5 4Z" fill="#BFBFBF"/>
</svg>
