<svg width="16" height="16" viewBox="0 0 16 16" fill="none" xmlns="http://www.w3.org/2000/svg">
<path d="M3.73324 14.9333C3.36657 14.9333 3.05257 14.8029 2.79124 14.542C2.53035 14.2806 2.3999 13.9666 2.3999 13.6V4.26664H3.73324V13.6H11.0666V14.9333H3.73324ZM6.3999 12.2666C6.03324 12.2666 5.71946 12.1362 5.45857 11.8753C5.19724 11.614 5.06657 11.3 5.06657 10.9333V2.93331C5.06657 2.56664 5.19724 2.25264 5.45857 1.99131C5.71946 1.73042 6.03324 1.59998 6.3999 1.59998H12.3999C12.7666 1.59998 13.0806 1.73042 13.3419 1.99131C13.6028 2.25264 13.7332 2.56664 13.7332 2.93331V10.9333C13.7332 11.3 13.6028 11.614 13.3419 11.8753C13.0806 12.1362 12.7666 12.2666 12.3999 12.2666H6.3999ZM6.3999 10.9333H12.3999V2.93331H6.3999V10.9333ZM6.3999 10.9333V2.93331V10.9333Z" fill="#595959"/>
</svg>
