<svg width="12" height="12" viewBox="0 0 12 12" fill="none" xmlns="http://www.w3.org/2000/svg">
<path d="M11.2501 6.8625C11.2501 7.39875 10.8206 7.8375 10.2956 7.8375H7.284L7.73741 10.0654L7.75172 10.2214C7.75172 10.4212 7.67059 10.6065 7.54172 10.7381L7.03582 11.25L3.89536 8.03737C3.71877 7.86187 3.61377 7.61812 3.61377 7.35V2.475C3.61377 1.93875 4.04332 1.5 4.56832 1.5H8.86377C9.25991 1.5 9.59877 1.74375 9.74195 2.09475L11.1833 5.53163C11.2263 5.64375 11.2501 5.76075 11.2501 5.8875V6.8625Z" fill="#BFBFBF"/>
<path d="M2.65909 1.5001H0.75V7.3501H2.65909V1.5001Z" fill="#BFBFBF"/>
</svg>
