<svg width="16" height="16" viewBox="0 0 16 16" fill="none" xmlns="http://www.w3.org/2000/svg">
<path d="M12.987 8.23335C11.9403 5.51335 8.21366 5.36668 9.11366 1.41335C9.18033 1.12001 8.86699 0.893346 8.61366 1.04668C6.19366 2.47335 4.45366 5.33335 5.91366 9.08001C6.03366 9.38668 5.67366 9.67335 5.41366 9.47335C4.20699 8.56001 4.08033 7.24668 4.18699 6.30668C4.22699 5.96001 3.77366 5.79335 3.58033 6.08001C3.12699 6.77335 2.66699 7.89335 2.66699 9.58001C2.92033 13.3133 6.07366 14.46 7.20699 14.6067C8.82699 14.8133 10.5803 14.5133 11.8403 13.36C13.227 12.0733 13.7337 10.02 12.987 8.23335ZM6.80032 11.5867C7.76032 11.3533 8.25366 10.66 8.38699 10.0467C8.60699 9.09335 7.74699 8.16001 8.32699 6.65335C8.54699 7.90001 10.507 8.68001 10.507 10.04C10.5603 11.7267 8.73366 13.1733 6.80032 11.5867Z" fill="#2081E2"/>
<path d="M12.987 8.23335C11.9403 5.51335 8.21366 5.36668 9.11366 1.41335C9.18033 1.12001 8.86699 0.893346 8.61366 1.04668C6.19366 2.47335 4.45366 5.33335 5.91366 9.08001C6.03366 9.38668 5.67366 9.67335 5.41366 9.47335C4.20699 8.56001 4.08033 7.24668 4.18699 6.30668C4.22699 5.96001 3.77366 5.79335 3.58033 6.08001C3.12699 6.77335 2.66699 7.89335 2.66699 9.58001C2.92033 13.3133 6.07366 14.46 7.20699 14.6067C8.82699 14.8133 10.5803 14.5133 11.8403 13.36C13.227 12.0733 13.7337 10.02 12.987 8.23335ZM6.80032 11.5867C7.76032 11.3533 8.25366 10.66 8.38699 10.0467C8.60699 9.09335 7.74699 8.16001 8.32699 6.65335C8.54699 7.90001 10.507 8.68001 10.507 10.04C10.5603 11.7267 8.73366 13.1733 6.80032 11.5867Z" fill="#2081E2"/>
</svg>
