<svg width="32" height="32" viewBox="0 0 32 32" fill="none" xmlns="http://www.w3.org/2000/svg">
<path d="M0.0132775 15.0037H32L31.9867 27H0L0.0132775 15.0037Z" fill="#2081E2"/>
<path d="M1.94176 5V12.1246H3.79119V7.903H3.85085L5.48153 12.0754H6.61506L8.25568 7.93252H8.31534V12.1246H10.1648V5H7.80824L6.09801 9.14292H6.00852L4.2983 5H1.94176Z" fill="#2081E2"/>
<path d="M11.1392 12.1246H16.2699V10.6092H13.0284V9.32006H16.0114V7.80459H13.0284V6.51546H16.2798V5H11.1392V12.1246Z" fill="#2081E2"/>
<path d="M17.0653 6.51546H19.233V12.1246H21.1023V6.51546H23.2699V5H17.0653V6.51546Z" fill="#2081E2"/>
<path d="M24.9006 12.1246L25.3281 10.7273H27.7394L28.1719 12.1246H30.2102L27.8239 5H25.2486L22.8523 12.1246H24.9006ZM25.7656 9.31022L26.5014 6.91893H26.5611L27.3019 9.31022H25.7656Z" fill="#2081E2"/>
<path d="M2.60062 24.6007H4.48982V22.4555H5.60346C7.24408 22.4604 8.32789 21.5009 8.32789 19.9756C8.32789 18.4749 7.27391 17.4761 5.66312 17.4761H2.60062V24.6007ZM4.48982 20.9991V18.9719H5.22562C5.93655 18.9768 6.35417 19.3557 6.3492 19.9756C6.35417 20.6005 5.93655 20.9941 5.22562 20.9991H4.48982Z" fill="white"/>
<path d="M15.9941 21.0384C15.9941 18.6668 14.4579 17.3777 12.514 17.3777C10.5502 17.3777 9.02888 18.6668 9.02391 21.0384C9.02888 23.3953 10.5502 24.6992 12.514 24.6992C14.4579 24.6992 15.9941 23.41 15.9941 21.0384ZM10.9728 21.0384C10.9728 19.7247 11.5197 19.0112 12.514 19.0112C13.4983 19.0112 14.0502 19.7247 14.0452 21.0384C14.0502 22.3472 13.4983 23.0607 12.514 23.0656C11.5197 23.0607 10.9728 22.3472 10.9728 21.0384Z" fill="white"/>
<path d="M20.7966 19.6804H22.6162C22.6063 18.2978 21.5175 17.3777 19.7924 17.3777C18.102 17.3777 16.8989 18.283 16.9089 19.6312C16.9039 20.7334 17.6795 21.3533 18.9472 21.6289L19.6731 21.7863C20.4735 21.9585 20.7718 22.1603 20.7768 22.5047C20.7718 22.8836 20.4238 23.1443 19.7725 23.1443C19.0218 23.1443 18.5594 22.795 18.5296 22.1307H16.7199C16.7348 23.8873 17.9429 24.6844 19.8023 24.6893C21.6219 24.6844 22.7057 23.9021 22.7157 22.5047C22.7057 21.4075 22.0147 20.6645 20.4685 20.3397L19.8719 20.202C19.2008 20.0642 18.8627 19.8625 18.8776 19.4934C18.8826 19.1638 19.1709 18.9178 19.7924 18.9227C20.4387 18.9178 20.7569 19.2031 20.7966 19.6804Z" fill="white"/>
<path d="M23.2824 18.9916H25.4501V24.6007H27.3194V18.9916H29.487V17.4761H23.2824V18.9916Z" fill="white"/>
</svg>
