<svg width="14" height="14" viewBox="0 0 14 14" fill="none" xmlns="http://www.w3.org/2000/svg">
<path d="M8.26583 1.75H2.91667C2.275 1.75 1.75 2.275 1.75 2.91667V11.0833C1.75 11.725 2.275 12.25 2.91667 12.25H11.0833C11.725 12.25 12.25 11.725 12.25 11.0833V5.73417C12.25 5.425 12.1275 5.1275 11.9058 4.91167L9.08833 2.09417C8.8725 1.8725 8.575 1.75 8.26583 1.75ZM4.66667 8.75H9.33333C9.65417 8.75 9.91667 9.0125 9.91667 9.33333C9.91667 9.65417 9.65417 9.91667 9.33333 9.91667H4.66667C4.34583 9.91667 4.08333 9.65417 4.08333 9.33333C4.08333 9.0125 4.34583 8.75 4.66667 8.75ZM4.66667 6.41667H9.33333C9.65417 6.41667 9.91667 6.67917 9.91667 7C9.91667 7.32083 9.65417 7.58333 9.33333 7.58333H4.66667C4.34583 7.58333 4.08333 7.32083 4.08333 7C4.08333 6.67917 4.34583 6.41667 4.66667 6.41667ZM4.66667 4.08333H7.58333C7.90417 4.08333 8.16667 4.34583 8.16667 4.66667C8.16667 4.9875 7.90417 5.25 7.58333 5.25H4.66667C4.34583 5.25 4.08333 4.9875 4.08333 4.66667C4.08333 4.34583 4.34583 4.08333 4.66667 4.08333Z" fill="#FAFAFA"/>
</svg>
