<svg width="26" height="26" viewBox="0 0 26 26" fill="none" xmlns="http://www.w3.org/2000/svg">
<path d="M20.4996 12C20.4996 12.6875 21.0621 13.25 21.7497 13.25H24.2496C24.9372 13.25 25.4997 12.6875 25.4997 12C25.4997 11.3125 24.9372 10.75 24.2496 10.75H21.7497C21.0621 10.75 20.4996 11.3125 20.4996 12Z" fill="white"/>
<path d="M18.7371 18.025C18.3246 18.5749 18.4371 19.3375 18.9871 19.7374C19.6497 20.2249 20.3496 20.7499 21.0121 21.25C21.5622 21.6625 22.3371 21.55 22.7371 21C22.7371 20.9875 22.7496 20.9875 22.7496 20.9749C23.1621 20.425 23.0496 19.65 22.4997 19.2499C21.8371 18.75 21.1371 18.225 20.4871 17.7375C19.9371 17.325 19.1621 17.45 18.7496 18C18.7496 18.0125 18.7371 18.025 18.7371 18.025Z" fill="white"/>
<path d="M22.7622 3.01255C22.7622 3.00006 22.7496 3.00006 22.7496 2.98754C22.3371 2.43756 21.5622 2.32506 21.0246 2.73756C20.3622 3.23755 19.6497 3.76255 18.9996 4.26254C18.4496 4.67504 18.3497 5.45005 18.7622 5.98754C18.7622 6.00006 18.7746 6.00006 18.7746 6.01255C19.1871 6.56256 19.9497 6.67506 20.4996 6.26256C21.1622 5.77506 21.8622 5.23754 22.5246 4.73755C23.0622 4.33754 23.1621 3.56256 22.7622 3.01255Z" fill="white"/>
<path d="M7.99963 8.25H2.99964C1.62463 8.25 0.499634 9.375 0.499634 10.75V13.25C0.499634 14.625 1.62463 15.75 2.99964 15.75H4.24963V19.5C4.24963 20.1874 4.81213 20.7499 5.49965 20.7499C6.18714 20.7499 6.74964 20.1874 6.74964 19.5V15.75H7.99963L14.2496 19.5V4.5L7.99963 8.25Z" fill="white"/>
<path d="M17.3746 12C17.3746 10.3375 16.6496 8.83749 15.4996 7.8125V16.175C16.6496 15.1625 17.3746 13.6625 17.3746 12Z" fill="white"/>
</svg>
